<svg xmlns="http://www.w3.org/2000/svg" viewBox="0 0 180 180" role="img" aria-label="せみ">
  <defs>
    <linearGradient id="wing" x1="0" x2="1" y1="0" y2="1">
      <stop offset="0" stop-color="#e9fbff"/>
      <stop offset="1" stop-color="#a9e8f7"/>
    </linearGradient>
    <linearGradient id="body" x1="0" x2="0" y1="0" y2="1">
      <stop offset="0" stop-color="#8ad56f"/>
      <stop offset="1" stop-color="#4d9f46"/>
    </linearGradient>
  </defs>
  <circle cx="90" cy="90" r="82" fill="#fff7d6"/>
  <path d="M82 76C48 34 20 48 22 86c2 35 35 51 62 29" fill="url(#wing)" stroke="#4aaac0" stroke-width="5" stroke-linejoin="round"/>
  <path d="M98 76c34-42 62-28 60 10-2 35-35 51-62 29" fill="url(#wing)" stroke="#4aaac0" stroke-width="5" stroke-linejoin="round"/>
  <path d="M68 68c-18-13-37-13-51-4" fill="none" stroke="#7c5b32" stroke-width="6" stroke-linecap="round"/>
  <path d="M112 68c18-13 37-13 51-4" fill="none" stroke="#7c5b32" stroke-width="6" stroke-linecap="round"/>
  <ellipse cx="90" cy="83" rx="30" ry="46" fill="url(#body)" stroke="#316f35" stroke-width="6"/>
  <circle cx="76" cy="45" r="15" fill="#5a3927"/>
  <circle cx="104" cy="45" r="15" fill="#5a3927"/>
  <circle cx="72" cy="42" r="5" fill="#ffffff"/>
  <circle cx="100" cy="42" r="5" fill="#ffffff"/>
  <path d="M66 100h48M69 117h42M75 134h30" stroke="#316f35" stroke-width="7" stroke-linecap="round"/>
  <path d="M58 102 32 118M122 102l26 16M61 124l-22 26M119 124l22 26" stroke="#7c5b32" stroke-width="7" stroke-linecap="round"/>
</svg>
